HIERARCHY
ROOT Hips
{
	OFFSET 0.00 0.00 0.00
	CHANNELS 6 Xposition Yposition Zposition Yrotation Xrotation Zrotation
	JOINT LHipJoint
	{
		OFFSET	0.0000	0.0000	0.0000
		CHANNELS 3 Yrotation Xrotation Zrotation
		JOINT LeftUpLeg
		{
			OFFSET	1.0138	-0.0809	-0.0827
			CHANNELS 3 Yrotation Xrotation Zrotation
			JOINT LeftLeg
			{
				OFFSET	0.4110	-3.9095	0.3245
				CHANNELS 3 Yrotation Xrotation Zrotation
				JOINT LeftFoot
				{
					OFFSET	0.3810	-4.0555	-0.1470
					CHANNELS 3 Yrotation Xrotation Zrotation
					JOINT LeftToeBase
					{
						OFFSET	0.1396	-0.4462	1.3079
						CHANNELS 3 Yrotation Xrotation Zrotation
						End Site
						{
							OFFSET 0.0161 -0.0248 0.1809
						}
					}
				}
			}
		}
	}
	JOINT LowerBack
	{
		OFFSET	0.0000	0.7977	-0.3873
		CHANNELS 3 Yrotation Xrotation Zrotation
		JOINT Spine
		{
			OFFSET	0.0000	1.4131	0.1715
			CHANNELS 3 Yrotation Xrotation Zrotation
			JOINT Spine1
			{
				OFFSET	0.0000	1.4392	-0.1032
				CHANNELS 3 Yrotation Xrotation Zrotation
				JOINT LeftShoulder
				{
					OFFSET	0.2274	1.0382	0.4032
					CHANNELS 3 Yrotation Xrotation Zrotation
					JOINT LeftArm
					{
						OFFSET	1.4730	-0.2267	-0.0231
						CHANNELS 3 Yrotation Xrotation Zrotation
						JOINT LeftForeArm
						{
							OFFSET	1.6131	-1.8059	0.0081
							CHANNELS 3 Yrotation Xrotation Zrotation
							JOINT LeftHand
							{
								OFFSET	1.2197	-1.2423	1.6317
								CHANNELS 3 Yrotation Xrotation Zrotation
								JOINT LThumb
								{
									OFFSET	0.0109	-0.0753	0.4387
									CHANNELS 3 Yrotation Xrotation Zrotation
									End Site
									{
										OFFSET -0.2090 -0.0868 0.2097
									}
								}
								JOINT LeftFingerBase
								{
									OFFSET	0.1071	-0.1567	0.2607
									CHANNELS 3 Yrotation Xrotation Zrotation
									JOINT LeftHandFinger1
									{
										OFFSET	0.1706	-0.2492	0.6830
										CHANNELS 3 Yrotation Xrotation Zrotation
										End Site
										{
											OFFSET 0.0335 -0.1507 0.2071
										}
									}
								}
							}
						}
					}
				}
				JOINT Neck
				{
					OFFSET	0.0000	1.7498	0.2381
					CHANNELS 3 Yrotation Xrotation Zrotation
					JOINT Neck1
					{
						OFFSET	0.0000	0.5043	0.1959
						CHANNELS 3 Yrotation Xrotation Zrotation
						JOINT Head
						{
							OFFSET	0.0000	0.5044	0.1959
							CHANNELS 3 Yrotation Xrotation Zrotation
							End Site
							{
								OFFSET 0.0000 1.4798 -0.0693
							}
						}
					}
				}
				JOINT RightShoulder
				{
					OFFSET	-0.2274	1.0382	0.4032
					CHANNELS 3 Yrotation Xrotation Zrotation
					JOINT RightArm
					{
						OFFSET	-1.4730	-0.2267	-0.0231
						CHANNELS 3 Yrotation Xrotation Zrotation
						JOINT RightForeArm
						{
							OFFSET	-1.6131	-1.8059	0.0081
							CHANNELS 3 Yrotation Xrotation Zrotation
							JOINT RightHand
							{
								OFFSET	-1.2197	-1.2423	1.6317
								CHANNELS 3 Yrotation Xrotation Zrotation
								JOINT RThumb
								{
									OFFSET	-0.0109	-0.0753	0.4387
									CHANNELS 3 Yrotation Xrotation Zrotation
									End Site
									{
										OFFSET 0.2090 -0.0868 0.2097
									}
								}
								JOINT RightFingerBase
								{
									OFFSET	-0.1071	-0.1567	0.2607
									CHANNELS 3 Yrotation Xrotation Zrotation
									JOINT RightHandFinger1
									{
										OFFSET	-0.1706	-0.2492	0.6830
										CHANNELS 3 Yrotation Xrotation Zrotation
										End Site
										{
											OFFSET -0.0335 -0.1507 0.2071
										}
									}
								}
							}
						}
					}
				}
			}
		}
	}
	JOINT RHipJoint
	{
		OFFSET	0.0000	0.0000	0.0000
		CHANNELS 3 Yrotation Xrotation Zrotation
		JOINT RightUpLeg
		{
			OFFSET	-1.0138	-0.0809	-0.0827
			CHANNELS 3 Yrotation Xrotation Zrotation
			JOINT RightLeg
			{
				OFFSET	-0.4110	-3.9095	0.3245
				CHANNELS 3 Yrotation Xrotation Zrotation
				JOINT RightFoot
				{
					OFFSET	-0.3810	-4.0555	-0.1470
					CHANNELS 3 Yrotation Xrotation Zrotation
					JOINT RightToeBase
					{
						OFFSET	-0.1396	-0.4462	1.3079
						CHANNELS 3 Yrotation Xrotation Zrotation
						End Site
						{
							OFFSET -0.0161 -0.0248 0.1809
						}
					}
				}
			}
		}
	}
}
MOTION
Frames: 7
Frame Time: 0.0333333
0.0978 9.0574 -0.1623 1.7225 -1.0026 7.5653 0.0000 -0.0000 0.0000 3.9248 4.2372 -19.0141 -4.3479 9.8504 -0.1484 1.3620 13.2597 5.4515 -0.7714 -17.1780 7.9684 0.0000 -0.0000 0.0000 -0.3834 1.0063 -6.0734 -0.9078 1.9912 -9.7052 -6.6362 2.3719 -2.3269 10.3287 -20.4502 -14.0915 24.4860 25.9571 3.5102 0.4136 -8.2397 27.6366 27.6439 -2.2731 12.3916 6.9446 10.0588 0.6015 3.1188 -15.6134 4.8412 0.3324 0.1801 0.9652 0.3324 0.1801 0.9652 1.3403 -4.3851 0.1856 -4.6993 0.4752 1.0332 3.8886 -10.0607 39.2018 -6.5272 8.4182 1.5611 16.9062 15.2856 -42.7604 -27.9980 -2.6491 -12.2167 -6.9450 10.0583 -0.6018 -3.1188 -15.6135 -4.8413 0.0000 -0.0000 0.0000 0.6330 -29.9502 0.1790 -24.0980 59.2522 -20.5831 -13.4376 14.9423 -17.5855 -0.0000 -1.7186 0.0000 
0.0834 9.0775 -0.2055 4.4695 -0.8386 6.4417 0.0000 -0.0000 0.0000 5.1369 7.2507 -16.6889 -5.2315 8.4137 -0.0461 1.0985 11.8906 3.3697 -0.0448 -21.6178 -1.3159 0.0000 -0.0000 0.0000 -1.4664 1.0502 -5.1989 -2.9455 2.0482 -8.2879 -6.7015 2.4065 -2.4364 4.2695 -24.8574 -13.2058 23.8679 25.4400 3.2525 -2.1640 -7.9233 25.8570 27.6439 -2.2730 12.3916 6.9446 10.0588 0.6015 3.1188 -15.6135 4.8413 0.3964 0.0779 1.0193 0.3964 0.0779 1.0192 1.7925 -4.0363 -0.9362 -5.3155 0.4022 1.2365 -0.1255 -7.1417 38.9471 -13.0820 15.3582 0.3360 13.3640 13.5939 -49.0914 -27.9980 -2.6494 -12.2166 -6.9451 10.0582 -0.6019 -3.1188 -15.6135 -4.8413 0.0000 -0.0000 0.0000 -0.6302 -30.9305 1.1325 -19.3103 51.4315 -15.6073 -11.4299 14.4956 -15.2185 -0.0000 -1.7245 0.0000 
0.0674 9.0715 -0.2294 7.3221 -0.6973 5.5114 0.0000 -0.0000 0.0000 7.0087 10.1217 -14.1799 -6.9739 7.0164 -0.4859 1.0462 11.2285 3.6104 -0.1320 -22.5713 -0.7719 0.0000 -0.0000 0.0000 -2.5452 1.1596 -4.2873 -5.0163 2.2425 -6.9218 -6.6646 2.4025 -2.5011 -1.4674 -28.5012 -12.4796 22.6030 24.3602 2.7414 -5.8388 -6.8414 22.4679 27.6439 -2.2731 12.3916 6.9446 10.0588 0.6015 3.1188 -15.6135 4.8413 0.4129 -0.1320 1.1111 0.4130 -0.1321 1.1112 2.1053 -3.9512 -2.0286 -5.4788 0.3951 1.4308 -5.2198 -4.5462 38.1121 -18.9565 21.0891 -1.3958 10.9414 11.5663 -54.2093 -27.9981 -2.6488 -12.2167 -6.9449 10.0585 -0.6017 -3.1188 -15.6135 -4.8413 0.0000 -0.0000 0.0000 -1.8751 -30.5951 2.0346 -15.7297 41.4266 -11.7463 -9.8039 15.2688 -14.9652 0.0000 -1.7304 -0.0000 
0.0467 9.0440 -0.2424 10.1409 -0.5875 4.7845 0.0000 -0.0000 0.0000 8.8026 11.9873 -11.7195 -8.0651 7.2341 -0.5672 0.8981 9.9527 2.8929 -0.1594 -23.8507 -0.7262 0.0000 -0.0000 0.0000 -3.5625 1.2806 -3.3866 -7.0221 2.4582 -5.6908 -6.5357 2.3627 -2.5239 -6.4656 -31.2148 -12.1062 20.6659 22.6514 2.0023 -10.6562 -6.1999 18.2919 27.6439 -2.2731 12.3916 6.9446 10.0588 0.6015 3.1188 -15.6135 4.8413 0.3809 -0.3942 1.2764 0.3809 -0.3942 1.2764 2.3133 -4.1296 -3.0758 -5.2928 0.4316 1.6127 -10.8988 -2.4511 36.6364 -23.3549 25.0055 -3.0425 9.3722 9.3519 -57.5809 -27.9981 -2.6481 -12.2169 -6.9446 10.0588 -0.6014 -3.1188 -15.6135 -4.8413 0.0000 -0.0000 0.0000 -3.0425 -29.3602 2.7657 -13.4418 30.6994 -8.8439 -9.0494 16.8675 -17.2393 0.0000 -1.7366 0.0000 
0.0259 9.0081 -0.2501 12.8349 -0.4832 4.1350 0.0000 -0.0000 0.0000 9.8702 13.9642 -9.6181 -8.4992 6.8177 0.2945 0.7690 9.0362 1.4956 -0.1433 -25.0544 -1.0064 0.0000 -0.0000 0.0000 -4.4739 1.3863 -2.4819 -8.8636 2.6510 -4.4279 -6.3472 2.2985 -2.5118 -10.5470 -33.0167 -12.1978 18.1547 20.3392 1.1266 -15.9791 -6.9417 14.5320 27.6439 -2.2730 12.3916 6.9446 10.0588 0.6015 3.1188 -15.6134 4.8412 0.3048 -0.6409 1.5201 0.3049 -0.6409 1.5201 2.4371 -4.4979 -4.0573 -4.9557 0.4775 1.7784 -16.6244 -0.9957 34.5952 -25.8719 27.0915 -4.1063 8.1625 6.8899 -59.2539 -27.9982 -2.6479 -12.2169 -6.9445 10.0589 -0.6014 -3.1188 -15.6135 -4.8413 0.0000 -0.0000 0.0000 -4.7066 -27.6772 3.5682 -12.1804 19.9376 -6.6578 -6.7194 18.5056 -17.9098 0.0000 -1.7429 -0.0000 
0.0054 8.9423 -0.2512 15.2621 -0.3299 3.5223 0.0000 -0.0000 0.0000 11.4971 14.6117 -7.0071 -9.2956 8.7361 0.2980 0.6563 7.1764 0.3349 -0.0802 -25.8667 -1.5134 0.0000 -0.0000 0.0000 -5.2308 1.4505 -1.5662 -10.4140 2.7733 -3.1101 -6.1482 2.2273 -2.4730 -13.7404 -34.0582 -12.7531 15.2316 17.5169 0.2318 -20.8525 -9.0657 12.3651 27.6439 -2.2731 12.3916 6.9446 10.0588 0.6015 3.1188 -15.6135 4.8413 0.2013 -0.8132 1.8057 0.2013 -0.8132 1.8057 2.4914 -4.9326 -4.9468 -4.7151 0.4967 1.9229 -21.8816 -0.1769 32.1626 -26.7695 27.8075 -4.5055 6.9327 4.0514 -59.7485 -27.9982 -2.6480 -12.2169 -6.9446 10.0589 -0.6014 -3.1188 -15.6135 -4.8413 0.0000 -0.0000 0.0000 -6.0370 -26.8753 4.2705 -11.3549 12.1097 -5.0807 -4.3966 19.9606 -16.7195 -0.0000 -1.7495 0.0000 
-0.0126 8.8607 -0.2542 17.2352 -0.0667 2.9599 0.0000 -0.0000 0.0000 13.2060 14.9458 -4.2757 -9.1449 10.8101 0.1709 -0.7417 4.9668 0.1182 -0.1975 -21.2414 0.5420 0.0000 -0.0000 0.0000 -5.8045 1.4684 -0.6948 -11.5672 2.8307 -1.7217 -5.9883 2.1672 -2.4138 -16.1653 -34.5186 -13.6935 12.0226 14.2706 -0.5865 -24.5786 -11.6261 12.1904 27.6439 -2.2731 12.3916 6.9446 10.0588 0.6015 3.1188 -15.6134 4.8412 0.0986 -0.8875 2.0585 0.0986 -0.8875 2.0585 2.4920 -5.3116 -5.7173 -4.7818 0.4661 2.0415 -26.3362 0.1702 29.5329 -26.8275 27.8533 -4.5316 5.6821 0.8707 -59.8018 -27.9982 -2.6482 -12.2168 -6.9447 10.0588 -0.6015 -3.1188 -15.6135 -4.8413 0.0000 -0.0000 0.0000 -7.3273 -27.3610 4.8443 -10.9675 8.3059 -3.8246 -3.8518 19.6792 -16.8188 -0.0000 -1.7562 -0.0000 
